<?xml version="1.0" encoding="UTF-8" standalone="no"?>
<!-- Created with Inkscape (http://www.inkscape.org/) -->

<svg
   width="51.436913mm"
   height="142.69597mm"
   viewBox="0 0 51.436913 142.69597"
   version="1.1"
   id="svg1"
   inkscape:version="1.3.2 (091e20ef0f, 2023-11-25, custom)"
   sodipodi:docname="foot-bottom.svg"
   xmlns:inkscape="http://www.inkscape.org/namespaces/inkscape"
   xmlns:sodipodi="http://sodipodi.sourceforge.net/DTD/sodipodi-0.dtd"
   xmlns="http://www.w3.org/2000/svg"
   xmlns:svg="http://www.w3.org/2000/svg">
  <sodipodi:namedview
     id="namedview1"
     pagecolor="#ffffff"
     bordercolor="#000000"
     borderopacity="0.25"
     inkscape:showpageshadow="2"
     inkscape:pageopacity="0.0"
     inkscape:pagecheckerboard="0"
     inkscape:deskcolor="#d1d1d1"
     inkscape:document-units="mm"
     inkscape:zoom="2.0133532"
     inkscape:cx="343.95356"
     inkscape:cy="255.54384"
     inkscape:window-width="3840"
     inkscape:window-height="2121"
     inkscape:window-x="0"
     inkscape:window-y="0"
     inkscape:window-maximized="1"
     inkscape:current-layer="layer1" />
  <defs
     id="defs1" />
  <g
     inkscape:label="Layer 1"
     inkscape:groupmode="layer"
     id="layer1"
     transform="translate(-58.879461,-71.557158)">
    <path
       d="m 91.508444,213.50531 c 1.26976,-0.22112 2.15654,-0.60468 3.59354,-1.55432 2.5317,-1.67306 3.93452,-3.18497 5.036506,-5.42816 2.16002,-4.39688 2.48458,-9.96922 1.09417,-18.78542 -0.92447,-5.86191 -1.21146,-13.16108 -0.66712,-16.96774 0.14835,-1.03757 0.39217,-4.01413 0.54176,-6.61458 0.1496,-2.60045 0.50983,-6.4545 0.8005,-8.56455 0.29067,-2.11005 0.64958,-4.78896 0.79756,-5.95313 0.14798,-1.16416 0.45821,-2.89057 0.6894,-3.83646 0.23119,-0.94588 0.47112,-1.99921 0.53321,-2.34072 0.0621,-0.34152 0.45432,-1.6512 0.87162,-2.91042 0.41733,-1.25921 1.13723,-3.59917 1.5998,-5.1999 0.4626,-1.60073 1.17761,-3.92245 1.58896,-5.15937 0.41132,-1.23693 1.01034,-3.65187 1.33112,-5.36653 0.50421,-2.69524 0.56475,-3.71676 0.44675,-7.54063 -0.12147,-3.93532 -0.23845,-4.81692 -1.06085,-7.99493 -0.5084,-1.96453 -1.29363,-4.46484 -1.74501,-5.55625 -0.45138,-1.0914 -0.82108,-2.01414 -0.82158,-2.05052 0,-0.0364 -0.15923,-0.0661 -0.35274,-0.0661 -0.4953,0 -0.91829,-5.826982 -0.82593,-11.377081 0.0688,-4.133889 0.0342,-4.486058 -0.65137,-6.634445 -0.79251,-2.48326 -1.92059,-4.429149 -4.465026,-7.701862 -1.92714,-2.478744 -2.36873,-2.853841 -4.1348,-3.512344 -1.14998,-0.428778 -1.45687,-0.445537 -2.64583,-0.144486 -4.58385,1.160645 -6.16794,3.113561 -5.90847,7.28413 0.0631,1.015005 0.185,2.083591 0.27078,2.374633 0.0858,0.291041 0.3413,1.124479 0.56782,1.852083 0.22653,0.727604 0.41315,1.762374 0.41473,2.299488 0.002,0.537115 0.10588,1.040241 0.23179,1.118055 0.12591,0.07781 0.29876,0.571847 0.38411,1.097847 0.0854,0.525999 0.35865,1.489106 0.60733,2.140235 0.42188,1.104686 0.5997,1.252697 2.65858,2.212811 2.19941,1.025642 2.72984,1.64542 1.69053,1.975284 -0.28376,0.09006 -0.87317,-0.02098 -1.30979,-0.246753 -0.43659,-0.22578 -0.84741,-0.410509 -0.91287,-0.410509 -0.26839,0 0.89739,3.858136 1.35472,4.483423 0.27192,0.371774 1.17076,1.13135 1.99748,1.687951 2.15381,1.45013 1.97199,2.29738 -0.29136,1.35775 -1.10128,-0.45719 -4.29099,-3.470559 -4.29099,-4.053745 0,-0.305983 -0.34637,-0.344175 -1.85208,-0.204235 -1.7107,0.158994 -1.85209,0.133289 -1.85209,-0.336703 0,-0.313431 0.30946,-0.644364 0.80582,-0.861743 0.61251,-0.268248 0.77205,-0.479845 0.66507,-0.882073 -0.0774,-0.291042 -0.14237,-0.877342 -0.14436,-1.30289 l -0.004,-0.773727 -0.66496,0.6247 c -1.03896,0.976056 -1.29718,0.352094 -0.49704,-1.201041 0.64909,-1.259909 0.6707,-1.44502 0.50908,-4.3585 -0.14282,-2.574467 -0.47917,-4.689269 -1.10331,-6.937079 -0.13683,-0.492776 -1.59351,-0.996582 -2.88832,-0.998945 -1.02164,-0.0018 -3.01784,1.250717 -3.84784,2.414461 -0.53158,0.74532 -0.63291,1.194787 -0.61851,2.743438 0.0256,2.752275 1.53191,5.525235 4.20399,7.739062 0.39519,0.327422 0.82748,0.595313 0.96064,0.595313 0.13316,0 0.24211,0.174405 0.24211,0.387567 0,0.500975 -0.97188,1.019677 -1.60187,0.854932 -0.61119,-0.159832 -0.76307,0.24683 -0.47407,1.269296 0.46033,1.628624 0.26785,3.458935 -0.4846,4.608212 -0.38965,0.59514 -0.84515,1.08208 -1.01222,1.08208 -0.16706,0 -0.58338,0.29765 -0.92516,0.66145 -0.34177,0.36381 -0.90533,0.66146 -1.25236,0.66146 -0.34702,0 -0.57495,0.0906 -0.50651,0.20136 0.17654,0.28564 -0.35785,0.91191 -1.28384,1.50457 -1.03975,0.66547 -3.57187,3.06329 -3.57187,3.38243 0,0.5394 -1.80174,2.82154 -3.82509,4.84498 -1.17042,1.17047 -2.6722,2.74805 -3.33729,3.50573 -0.66508,0.75768 -1.34969,1.3776 -1.52135,1.3776 -0.38528,0 -0.40708,-0.91566 -0.0382,-1.60489 0.2155,-0.40268 0.1873,-0.51178 -0.1323,-0.51178 -0.2234,0 -0.40618,-0.11906 -0.40618,-0.26458 0,-0.14552 0.22207,-0.26458 0.49349,-0.26458 0.57463,0 1.88776,-0.96348 1.88776,-1.38511 0,-0.15859 0.38695,-0.89151 0.8599,-1.6287 0.76865,-1.19813 0.85519,-1.52688 0.8156,-3.09831 -0.0499,-1.98003 -0.80709,-4.06027 -1.82656,-5.01801 -0.52308,-0.49142 -0.74615,-0.54934 -1.24326,-0.32284 -0.72512,0.33039 -3.06002,4.01732 -3.29027,5.19551 -0.0896,0.45842 -0.34008,1.10753 -0.55665,1.44247 -0.32612,0.50435 -0.36312,1.29978 -0.21537,4.63021 0.18199,4.10227 0.13599,4.56584 -0.91108,9.18061 -0.75146,3.31195 -0.91998,8.05651 -0.37287,10.49754 0.63194,2.81944 1.6895,6.88166 2.43322,9.34621 1.50437,4.98524 2.3756,9.33462 2.59696,12.96458 0.0843,1.38245 0.50936,5.01386 0.94459,8.06979 0.43522,3.05594 0.85705,6.15157 0.93739,6.87918 0.0803,0.72759 0.25319,1.52343 0.38411,1.76854 0.13092,0.24509 0.23804,0.75163 0.23804,1.12565 0,0.37404 0.28218,1.78084 0.62707,3.12625 1.31186,5.1176 1.77466,7.36188 1.87828,9.1083 0.13708,2.31035 0.5154,5.05411 1.17911,8.55146 0.97042,5.11352 1.27068,6.20504 2.34194,8.51355 0.90042,1.94039 1.42009,2.64503 3.35637,4.55103 1.72141,1.69451 2.76629,2.48079 4.20278,3.16262 3.25139,1.54331 7.16635,2.08255 10.67875,1.47091 z M 70.928914,110.01606 c 0.45368,-0.76399 1.18457,-1.9693 1.62421,-2.67848 0.43964,-0.70918 0.75589,-1.33286 0.70279,-1.38596 -0.0531,-0.0531 -0.4981,0.19972 -0.98889,0.56181 -0.85766,0.63276 -1.59097,0.82708 -1.91151,0.50654 -0.0835,-0.0835 0.43706,-0.76811 1.15679,-1.52135 1.51767,-1.58835 1.68496,-2.03955 1.68496,-4.54454 0,-1.708587 -0.7698,-4.453523 -1.474,-5.25598 -0.35331,-0.402596 -2.49429,0.625255 -3.23436,1.55276 -2.0453,2.563288 -2.93534,5.74331 -1.47801,5.28077 0.37695,-0.11964 0.49783,-0.0262 0.49783,0.38478 0,0.29853 0.35719,1.28015 0.79375,2.18138 0.43656,0.90124 0.79448,1.94493 0.79538,2.31932 7.9e-4,0.3744 0.17949,1.02175 0.39688,1.43857 0.21738,0.41682 0.39524,1.16096 0.39524,1.65364 0,0.49269 0.0482,0.8958 0.10704,0.8958 0.0589,0 0.47822,-0.62508 0.9319,-1.38906 z m 7.48535,-7.36589 c 0.54101,-0.52543 1.11963,-1.30059 1.28583,-1.72258 0.37415,-0.95003 0.55378,-3.075351 0.24373,-2.883729 -0.34866,0.215482 -0.60763,-0.378158 -0.32255,-0.739391 0.13852,-0.175527 0.33269,-0.676328 0.43149,-1.112891 0.0988,-0.436562 0.28761,-1.27 0.41956,-1.852083 0.21652,-0.95513 0.13229,-1.277641 -0.86377,-3.307292 -1.21215,-2.469972 -1.5854,-2.889461 -2.5821,-2.902002 -1.35588,-0.01707 -3.49655,1.938983 -4.2106,3.847443 -0.61793,1.651567 -0.50513,2.197934 0.82797,4.010483 0.55986,0.761227 1.13634,1.695484 1.28106,2.076125 0.14472,0.38064 0.488,0.750882 0.76285,0.822756 0.75242,0.19676 0.87818,1.355351 0.18661,1.719171 -0.82371,0.43334 -0.88618,0.63317 -0.59299,1.89686 0.16845,0.72602 0.46619,1.24077 0.81084,1.40183 0.62215,0.29073 0.86703,0.15841 2.32207,-1.2547 z m 11.83926,-8.112236 c -0.005,-0.254662 -0.19198,-0.760678 -0.41516,-1.12448 -0.22317,-0.363802 -0.33803,-0.443362 -0.25521,-0.176797 0.0828,0.266563 0.15057,0.772578 0.15057,1.124479 0,0.351899 0.11906,0.639818 0.26458,0.639818 0.14552,0 0.26038,-0.208359 0.25522,-0.46302 z"
       style="fill:#ffffff;fill-opacity:1;stroke:#000000;stroke-width:1;stroke-dasharray:none;stroke-opacity:1"
       id="path1" />
  </g>
</svg>
