<?xml version="1.0" encoding="UTF-8" standalone="no"?>
<!-- Created with Inkscape (http://www.inkscape.org/) -->

<svg
   width="178.14156mm"
   height="126.35914mm"
   viewBox="0 0 178.14156 126.35914"
   version="1.1"
   id="svg1"
   inkscape:version="1.3.2 (091e20ef0f, 2023-11-25, custom)"
   sodipodi:docname="foot-side.svg"
   xmlns:inkscape="http://www.inkscape.org/namespaces/inkscape"
   xmlns:sodipodi="http://sodipodi.sourceforge.net/DTD/sodipodi-0.dtd"
   xmlns="http://www.w3.org/2000/svg"
   xmlns:svg="http://www.w3.org/2000/svg">
  <sodipodi:namedview
     id="namedview1"
     pagecolor="#ffffff"
     bordercolor="#000000"
     borderopacity="0.25"
     inkscape:showpageshadow="2"
     inkscape:pageopacity="0.0"
     inkscape:pagecheckerboard="0"
     inkscape:deskcolor="#d1d1d1"
     inkscape:document-units="mm"
     inkscape:zoom="1.1433196"
     inkscape:cx="214.28828"
     inkscape:cy="-69.53436"
     inkscape:window-width="3840"
     inkscape:window-height="2121"
     inkscape:window-x="0"
     inkscape:window-y="0"
     inkscape:window-maximized="1"
     inkscape:current-layer="layer1" />
  <defs
     id="defs1" />
  <g
     inkscape:label="Layer 1"
     inkscape:groupmode="layer"
     id="layer1"
     transform="translate(-49.617947,-83.515701)">
    <path
       d="m 116.83136,208.79519 c 2.23294,-0.56583 6.13477,-2.10454 6.93719,-2.73572 0.37114,-0.29194 0.79608,-0.53079 0.94431,-0.53079 0.14824,0 0.93585,-0.31183 1.75026,-0.69294 0.81441,-0.38111 2.25464,-1.05501 3.20053,-1.49753 0.94588,-0.44253 1.96453,-1.02269 2.26366,-1.28924 0.6791,-0.60513 3.40785,-1.94171 5.67384,-2.77912 0.94588,-0.34956 1.95791,-0.73637 2.24895,-0.85959 1.41542,-0.59923 2.03768,-0.79773 4.11136,-1.31148 1.23125,-0.30504 4.4413,-1.03006 7.13344,-1.61116 2.69213,-0.58109 5.72822,-1.29933 6.74687,-1.59609 1.01865,-0.29676 4.94771,-1.31819 8.73125,-2.26986 3.78354,-0.95167 7.65307,-1.95638 8.59896,-2.23269 1.86694,-0.54538 3.75526,-0.90531 7.66514,-1.46104 3.75633,-0.53392 8.81698,-1.69311 9.85991,-2.25852 0.25269,-0.13699 0.60988,-0.24966 0.79375,-0.25037 0.75002,-0.003 4.14054,-1.99223 5.62571,-3.30079 2.56178,-2.25715 3.11025,-2.80426 2.96094,-2.95358 -0.0775,-0.0775 -0.50602,0.12899 -0.95223,0.45888 -0.44621,0.3299 -0.88422,0.5269 -0.97334,0.43778 -0.25915,-0.25915 0.022,-0.54648 1.59412,-1.62925 1.3841,-0.95326 1.64394,-1.03093 4.05504,-1.21203 4.31192,-0.32388 6.11123,-1.56694 7.7137,-5.32906 1.07241,-2.5177 1.02315,-3.20967 -0.24304,-3.41422 -0.50948,-0.0823 -1.56823,-0.49901 -2.35276,-0.926 -1.24398,-0.67706 -1.70082,-0.77655 -3.57158,-0.77784 -1.88263,-0.001 -2.26368,0.0823 -3.11369,0.6829 -1.24839,0.88212 -4.0569,1.93293 -4.6045,1.7228 -0.72293,-0.27742 -0.25859,-0.80743 0.87726,-1.00134 1.19566,-0.20411 2.7114,-0.90213 2.7114,-1.24864 0,-0.26914 1.89378,-0.98055 3.19121,-1.1988 1.38748,-0.2334 3.46957,0.24705 4.92289,1.13599 1.64696,1.00737 3.45427,1.28025 4.18914,0.63249 0.93855,-0.8273 1.49382,-1.93393 2.12926,-4.24356 0.7563,-2.74889 0.62767,-3.13078 -1.13787,-3.37835 -0.69085,-0.0969 -1.88161,-0.4755 -2.64615,-0.84139 -1.31746,-0.63053 -1.53721,-0.65524 -4.20782,-0.47321 -3.04361,0.20745 -4.99669,0.75226 -6.93481,1.93445 -1.30964,0.79884 -3.27589,1.64334 -3.81068,1.63668 -0.17896,-0.002 -0.49631,-0.11222 -0.70524,-0.24442 -0.64254,-0.40658 0.16189,-1.07445 1.29415,-1.07445 0.62275,0 1.69942,-0.37244 2.94417,-1.01845 2.00841,-1.04235 2.72459,-1.26481 6.52922,-2.02818 2.2867,-0.45881 3.97188,-0.36668 4.98207,0.27237 0.76026,0.48093 2.68487,0.9751 3.79769,0.9751 0.9204,0 1.09953,-0.14081 2.46867,-1.94055 0.71137,-0.93508 1.05994,-2.57191 0.908,-4.2638 -0.13077,-1.45615 -0.10416,-1.5404 0.62207,-1.96939 1.55072,-0.91603 2.61881,-5.31283 1.98009,-8.15105 l -0.17863,-0.79375 0.52318,0.59531 c 0.70423,0.80133 1.0124,0.75137 1.63206,-0.26459 1.18014,-1.9349 1.65984,-4.07012 1.52826,-6.80262 -0.14031,-2.91383 -0.47684,-3.70722 -2.05103,-4.8355 l -1.01023,-0.72407 -1.81473,0.8076 c -0.9981,0.44418 -2.30761,1.03233 -2.91001,1.30701 -0.60241,0.27468 -1.40643,0.5775 -1.78672,0.67295 -0.80219,0.20133 -1.94,1.45343 -2.17629,2.39486 -0.0898,0.35795 -0.0911,1.0121 -0.003,1.45367 0.13321,0.66606 0.0822,0.78797 -0.29961,0.7154 -0.71708,-0.13632 -0.76092,-2.47388 -0.0675,-3.59714 0.295,-0.47783 0.71427,-0.92431 0.93172,-0.99218 0.21745,-0.0679 0.59099,-0.18575 0.8301,-0.26193 0.23911,-0.0762 0.38036,-0.1929 0.3139,-0.25937 -0.0665,-0.0665 -0.88718,0.061 -1.82381,0.28333 -3.33921,0.7925 -3.84131,0.88655 -5.60278,1.04948 -0.98073,0.0907 -1.85096,0.27465 -1.93384,0.40876 -0.0829,0.1341 -0.37655,0.24382 -0.6526,0.24382 -0.27605,0 -1.09904,0.35208 -1.82887,0.7824 -2.2136,1.30518 -4.20296,2.16379 -5.92395,2.55677 -1.95185,0.44569 -3.09113,0.87853 -3.09113,1.1744 0,0.11882 -0.20835,0.20486 -0.46302,0.19119 -0.25466,-0.0137 -1.41552,0.16505 -2.57968,0.39716 -3.44902,0.68765 -5.91894,0.89182 -13.49375,1.11545 -7.24805,0.21399 -15.60106,0.63442 -18.25625,0.9189 -6.49421,0.69578 -10.55675,0.87067 -12.8211,0.55194 -7.96656,-1.1214 -11.45264,-1.67727 -13.3425,-2.12753 -1.18075,-0.28132 -3.93275,-0.87995 -6.11557,-1.33029 -4.59875,-0.94877 -5.23867,-1.17003 -8.15426,-2.81941 -6.33953,-3.58636 -11.12351,-7.55556 -15.54752,-12.89956 -0.35193,-0.42513 -0.82991,-0.97234 -1.06216,-1.21603 -0.23225,-0.24369 -0.80352,-0.99719 -1.26948,-1.67444 -0.46597,-0.67725 -0.93711,-1.23137 -1.04699,-1.23137 -0.10989,0 -0.71191,-0.72618 -1.33783,-1.61374 -0.62592,-0.88756 -1.375387,-1.81029 -1.665487,-2.05052 -0.2901,-0.24023 -1.14087,-1.30801 -1.89061,-2.37286 -0.74974,-1.06484 -1.60234,-2.25546 -1.89468,-2.64583 -0.29234,-0.39036 -1.24064,-1.66226 -2.10734,-2.82642 -0.8667,-1.16417 -1.99673,-2.60348 -2.51118,-3.19847 -0.51446,-0.59499 -1.32433,-1.60702 -1.79973,-2.24896 -0.4754,-0.64193 -1.83354,-2.476844 -3.01809,-4.077573 -1.18454,-1.60073 -2.76011,-3.636804 -3.50126,-4.524611 -0.74115,-0.887807 -1.52614,-1.884603 -1.74442,-2.215105 -0.8758,-1.326054 -4.26028,-5.785559 -4.6131,-6.078373 -0.25892,-0.214889 -2.61523,-0.35887 -7.53313,-0.460306 l -7.15637,-0.147609 -0.86588,0.983602 c -1.02602,1.165492 -2.52402,1.99136 -3.61204,1.99136 -1.21718,0 -2.34691,0.802217 -2.98082,2.116667 -0.31581,0.654843 -0.67448,1.397367 -0.79705,1.650055 -0.12258,0.252688 -0.22286,0.750951 -0.22286,1.107255 0,1.004575 -0.39735,1.773335 -1.56472,3.027296 l -1.07468,1.154396 -0.0878,17.051276 -0.0878,17.05127 1.07675,0.84236 c 0.59221,0.4633 1.11644,0.93255 1.16494,1.04277 0.0485,0.11022 0.23612,0.2004 0.41691,0.2004 0.18078,0 0.60834,0.29766 0.95011,0.66146 0.34177,0.3638 0.73371,0.66146 0.87097,0.66146 0.13725,0 1.17407,0.83344 2.30403,1.85208 1.12996,1.01865 2.14214,1.85209 2.24929,1.85209 0.50016,0 5.02879,3.90025 11.44362,9.85573 1.52826,1.41882 2.94209,2.57968 3.14183,2.57968 0.19975,0 0.36318,0.11627 0.36318,0.25838 0,0.14211 0.99244,1.24344 2.20543,2.4474 1.21298,1.20396 2.43099,2.5462 2.70667,2.98277 0.49497,0.7838 3.76145,4.90302 4.09131,5.15937 0.0936,0.0728 0.59126,0.79543 1.10586,1.60594 0.51459,0.8105 1.29336,1.88206 1.73059,2.38125 1.96724,2.24594 7.97159,13.75056 9.58029,18.35628 0.45479,1.30208 0.9457,2.51057 1.0909,2.68552 0.31291,0.37704 0.64738,2.38559 1.02825,6.17485 0.36519,3.63322 1.44089,8.07851 2.625557,10.84996 1.56423,3.65942 3.53922,5.19354 8.20978,6.3771 2.29316,0.58111 5.62264,0.50731 8.35557,-0.18522 z m -8.83744,-28.80751 c -1.26945,-0.55902 -0.83696,-0.77311 0.77876,-0.3855 0.74943,0.17978 1.89655,0.25369 2.54916,0.16424 0.88266,-0.12098 1.15876,-0.0785 1.078,0.16596 -0.16422,0.49701 -3.31311,0.53654 -4.40592,0.0553 z m -0.51959,-1.37264 c -0.84947,-0.16106 -2.22414,-0.9507 -2.3589,-1.35498 -0.0779,-0.23358 0.10946,-0.2845 0.64368,-0.17498 0.46876,0.0961 0.12892,-0.17448 -0.89931,-0.71606 -1.90868,-1.00533 -3.71653,-3.11951 -2.66751,-3.11951 0.17045,0 0.5574,0.20117 0.8599,0.44705 0.3025,0.24588 -0.30514,-0.37919 -1.35032,-1.38906 -2.188247,-2.11432 -5.375717,-5.78498 -5.375717,-6.19063 0,-0.74328 0.95458,0.0397 4.233327,3.47219 1.96453,2.05667 4.24649,4.17949 5.07102,4.71739 1.95882,1.27787 4.24107,1.79 6.08263,1.36491 1.64379,-0.37943 4.84813,-0.39755 5.5325,-0.0313 1.59205,0.85205 -0.17752,1.11189 -7.50371,1.10183 -0.55221,-7.9e-4 -1.32612,-0.0809 -1.71979,-0.1781 -0.59134,-0.14601 -0.65593,-0.11598 -0.37158,0.17272 0.22637,0.22984 1.02003,0.34572 2.31874,0.33855 1.25594,-0.007 1.94076,0.0893 1.8817,0.26458 -0.10675,0.31675 -3.67215,0.37727 -4.67692,0.0794 -0.36381,-0.10785 -0.18521,0.0379 0.39687,0.32379 0.58992,0.2898 1.61458,0.52297 2.3151,0.52684 0.69123,0.004 1.25678,0.126 1.25678,0.27152 0,0.26082 -2.425,0.30965 -3.66849,0.0739 z m -1.193,-2.8014 c -0.27272,-0.17334 -0.90309,-0.58306 -1.40081,-0.91048 -1.34765,-0.88654 -1.37747,-0.72009 -0.0588,0.32816 0.63894,0.50791 1.3403,0.91762 1.55859,0.91048 0.30181,-0.01 0.2781,-0.0885 -0.099,-0.32816 z m 104.01409,-4.56755 c -0.40019,-0.2171 -0.72761,-0.50595 -0.72761,-0.64189 0,-0.55333 0.91565,-2.11719 1.23963,-2.11719 0.4757,0 0.43705,0.52125 -0.0811,1.09379 -0.70138,0.77501 -0.27688,1.28746 1.0665,1.28746 1.21583,0 1.79986,0.34948 1.05909,0.63374 -0.70029,0.26873 -1.79066,0.15958 -2.55652,-0.25591 z m 3.42494,-7.69309 c -0.44318,-0.12758 -0.53982,-0.68644 -0.11104,-0.64208 0.1055,0.0109 0.98954,0.0198 1.96453,0.0198 1.32798,0 1.69696,0.0757 1.47078,0.30192 -0.328,0.32801 -2.55289,0.54239 -3.32427,0.32032 z m -0.42109,-1.79254 c -0.2581,-0.6365 -0.24255,-0.8445 0.0878,-1.17488 0.58367,-0.58367 0.77492,-0.20994 0.4819,0.94171 l -0.2561,1.0066 z m 4.68117,-6.90943 c -0.0641,-0.0641 -0.47047,-0.15526 -0.9031,-0.20262 -1.27695,-0.1398 -1.42718,-0.3464 -1.24863,-1.71718 0.0892,-0.68489 0.27831,-1.39278 0.42022,-1.57308 0.48986,-0.6224 0.79443,-0.0142 0.64112,1.2802 l -0.15132,1.2777 0.963,0.18066 c 0.87026,0.16326 1.23319,0.0909 2.78014,-0.55442 0.67964,-0.2835 0.57499,0.31071 -0.13229,0.75117 -0.6288,0.39159 -2.17194,0.75476 -2.36914,0.55757 z m -18.99596,-1.54517 c 0,-0.53862 0.54746,-0.90043 1.78229,-1.17787 0.60499,-0.13594 1.83232,-0.73619 2.7274,-1.3339 0.89507,-0.5977 2.12179,-1.22168 2.72604,-1.3866 0.60425,-0.16493 1.78373,-0.52342 2.62105,-0.79663 0.83732,-0.27322 2.03514,-0.49677 2.66181,-0.49677 1.16001,0 3.89542,0.92917 4.98768,1.69422 0.38097,0.26684 1.15825,0.42245 2.11013,0.42245 1.77235,0 2.34401,0.17513 2.34401,0.71807 0,0.27625 -0.14073,0.33731 -0.46302,0.2009 -0.25466,-0.10779 -1.1167,-0.24243 -1.91564,-0.29921 -0.87652,-0.0623 -2.45052,-0.51058 -3.96875,-1.13031 -2.27702,-0.92947 -2.64184,-1.00613 -3.83904,-0.80677 -0.72761,0.12117 -1.84391,0.4076 -2.48067,0.63652 -0.63675,0.22892 -1.42069,0.41622 -1.74207,0.41622 -0.32138,0 -1.26484,0.4767 -2.09658,1.05934 -1.47724,1.0348 -4.62993,2.64482 -5.17903,2.64482 -0.15158,0 -0.27561,-0.16401 -0.27561,-0.36448 z m 2.38125,-7.25867 c 0,-0.30471 1.49534,-1.37268 1.92199,-1.37268 0.19576,0 1.10713,-0.52897 2.02527,-1.17549 0.91814,-0.64652 2.34037,-1.37058 3.16052,-1.60903 0.82015,-0.23845 2.42235,-0.73376 3.56045,-1.1007 2.32779,-0.75051 3.62671,-0.7 5.371,0.20885 0.56452,0.29414 1.68124,0.593 2.4816,0.66414 2.32491,0.20666 3.19893,0.37822 3.0613,0.6009 -0.0706,0.11428 -0.76647,0.15486 -1.54633,0.0902 l -1.41792,-0.11758 0.0176,1.62616 c 0.0159,1.47085 0.076,1.64097 0.62892,1.78122 0.33621,0.0853 1.08678,0.0913 1.66794,0.0133 0.736,-0.0987 1.02589,-0.0484 0.9553,0.16575 -0.13447,0.40798 -2.93948,0.54548 -3.62655,0.17778 -0.46987,-0.25148 -0.52823,-0.50469 -0.46034,-1.99738 0.0686,-1.5071 0.0206,-1.70939 -0.40538,-1.70939 -0.26572,0 -0.92767,-0.22679 -1.47099,-0.50397 -1.61644,-0.82464 -3.16793,-0.93912 -4.57039,-0.33723 -0.66754,0.28649 -2.11628,0.7685 -3.21942,1.07114 -1.82753,0.50138 -2.81069,0.99191 -4.69164,2.34082 -0.6279,0.45029 -2.82614,1.39732 -3.24451,1.39777 -0.10914,1.2e-4 -0.19844,-0.0965 -0.19844,-0.21461 z m 14.88281,-7.18639 c -0.61846,-0.28073 -1.12448,-0.64804 -1.12448,-0.81625 0,-0.18767 0.17889,-0.23199 0.46302,-0.11473 2.04718,0.84489 4.40306,0.69752 6.91577,-0.4326 1.96586,-0.88417 1.88163,-0.86661 1.88163,-0.39247 0,0.39999 -1.82455,1.35227 -3.68007,1.92072 -1.61244,0.49398 -3.12824,0.43797 -4.45587,-0.16467 z m 3.63802,-0.91395 c 0,-0.23773 2.96134,-1.50094 3.25888,-1.39013 0.17215,0.0641 -0.34185,0.42741 -1.14221,0.80731 -1.35394,0.64266 -2.11667,0.85268 -2.11667,0.58282 z m 0.26458,-1.07217 c 0,-0.24499 2.1596,-1.22576 2.46717,-1.12044 0.17103,0.0586 -0.21742,0.36318 -0.86322,0.67692 -1.1653,0.56612 -1.60395,0.68742 -1.60395,0.44352 z m 3.49401,-1.12986 c -0.55246,-1.46509 -0.59577,-2.56525 -0.15602,-3.96331 0.2744,-0.87239 0.58798,-1.3945 0.83753,-1.3945 0.33277,0 0.37095,0.29618 0.23025,1.78594 -0.0928,0.98226 -0.16952,2.35148 -0.17055,3.04271 -0.002,1.40223 -0.32506,1.6328 -0.74121,0.52916 z"
       style="fill:#ffffff;fill-opacity:1;stroke:#000000;stroke-width:1;stroke-dasharray:none;stroke-opacity:1"
       id="path1"
       sodipodi:nodetypes="csssssssssssssscssssssssscsssssssssssscsssssssssscsssscsssscssssscsssssssssssssssssssssssssssssscsssssscccsssssssssssscscsssssccssssscsssssssssssssscssccsccssscssssssssssssssssssscsssssscsssssssssssssssssssssscsssssssscsscsscssssssccssssssssssssssssssscs" />
  </g>
</svg>
