<?xml version="1.0" encoding="UTF-8" standalone="no"?>
<!DOCTYPE svg PUBLIC "-//W3C//DTD SVG 1.1//EN"
 "http://www.w3.org/Graphics/SVG/1.1/DTD/svg11.dtd">
<!-- Generated by graphviz version 14.1.5 (0)
 -->
<!-- Title: slicers Pages: 1 -->
<svg width="420pt" height="260pt"
 viewBox="0.00 0.00 420.00 260.00" xmlns="http://www.w3.org/2000/svg" xmlns:xlink="http://www.w3.org/1999/xlink">
<g id="graph0" class="graph" transform="scale(1 1) rotate(0) translate(4 256)">
<title>slicers</title>
<polygon fill="white" stroke="none" points="-4,4 -4,-256 415.99,-256 415.99,4 -4,4"/>
<!-- Slic3r -->
<g id="node1" class="node">
<title>Slic3r</title>
<ellipse fill="none" stroke="black" cx="201.66" cy="-234" rx="32.93" ry="18"/>
<text xml:space="preserve" text-anchor="middle" x="201.66" y="-228.95" font-family="Times,serif" font-size="14.00">Slic3r</text>
</g>
<!-- PrusaSlicer -->
<g id="node2" class="node">
<title>PrusaSlicer</title>
<ellipse fill="none" stroke="black" cx="201.66" cy="-162" rx="52.89" ry="18"/>
<text xml:space="preserve" text-anchor="middle" x="201.66" y="-156.95" font-family="Times,serif" font-size="14.00">PrusaSlicer</text>
</g>
<!-- Slic3r&#45;&gt;PrusaSlicer -->
<g id="edge1" class="edge">
<title>Slic3r&#45;&gt;PrusaSlicer</title>
<path fill="none" stroke="black" d="M201.66,-215.7C201.66,-208.41 201.66,-199.73 201.66,-191.54"/>
<polygon fill="black" stroke="black" points="205.16,-191.62 201.66,-181.62 198.16,-191.62 205.16,-191.62"/>
</g>
<!-- Bambu Studio -->
<g id="node3" class="node">
<title>Bambu Studio</title>
<ellipse fill="none" stroke="black" cx="64.66" cy="-90" rx="64.66" ry="18"/>
<text xml:space="preserve" text-anchor="middle" x="64.66" y="-84.95" font-family="Times,serif" font-size="14.00">Bambu Studio</text>
</g>
<!-- PrusaSlicer&#45;&gt;Bambu Studio -->
<g id="edge2" class="edge">
<title>PrusaSlicer&#45;&gt;Bambu Studio</title>
<path fill="none" stroke="black" d="M173.27,-146.5C153.38,-136.33 126.52,-122.61 104.49,-111.35"/>
<polygon fill="black" stroke="black" points="106.28,-108.33 95.78,-106.9 103.09,-114.57 106.28,-108.33"/>
</g>
<!-- SuperSlicer -->
<g id="node4" class="node">
<title>SuperSlicer</title>
<ellipse fill="none" stroke="black" cx="201.66" cy="-90" rx="53.91" ry="18"/>
<text xml:space="preserve" text-anchor="middle" x="201.66" y="-84.95" font-family="Times,serif" font-size="14.00">SuperSlicer</text>
</g>
<!-- PrusaSlicer&#45;&gt;SuperSlicer -->
<g id="edge3" class="edge">
<title>PrusaSlicer&#45;&gt;SuperSlicer</title>
<path fill="none" stroke="black" d="M201.66,-143.7C201.66,-136.41 201.66,-127.73 201.66,-119.54"/>
<polygon fill="black" stroke="black" points="205.16,-119.62 201.66,-109.62 198.16,-119.62 205.16,-119.62"/>
</g>
<!-- OrcaSlicer -->
<g id="node5" class="node">
<title>OrcaSlicer</title>
<ellipse fill="none" stroke="black" cx="242.66" cy="-18" rx="50.33" ry="18"/>
<text xml:space="preserve" text-anchor="middle" x="242.66" y="-12.95" font-family="Times,serif" font-size="14.00">OrcaSlicer</text>
</g>
<!-- PrusaSlicer&#45;&gt;OrcaSlicer -->
<g id="edge5" class="edge">
<title>PrusaSlicer&#45;&gt;OrcaSlicer</title>
<path fill="none" stroke="black" d="M228.67,-146.07C242.16,-137 257.18,-124.07 264.66,-108 273.82,-88.31 266.97,-64.32 258.57,-46.22"/>
<polygon fill="black" stroke="black" points="261.74,-44.74 254.09,-37.4 255.5,-47.9 261.74,-44.74"/>
</g>
<!-- Bambu Studio&#45;&gt;OrcaSlicer -->
<g id="edge4" class="edge">
<title>Bambu Studio&#45;&gt;OrcaSlicer</title>
<path fill="none" stroke="black" d="M100.68,-74.83C129.09,-63.66 168.82,-48.04 199.03,-36.16"/>
<polygon fill="black" stroke="black" points="200.26,-39.43 208.28,-32.52 197.7,-32.92 200.26,-39.43"/>
</g>
<!-- SuperSlicer&#45;&gt;OrcaSlicer -->
<g id="edge7" class="edge">
<title>SuperSlicer&#45;&gt;OrcaSlicer</title>
<path fill="none" stroke="black" d="M211.58,-72.05C216.22,-64.14 221.84,-54.54 227.03,-45.69"/>
<polygon fill="black" stroke="black" points="230.03,-47.49 232.06,-37.1 223.99,-43.95 230.03,-47.49"/>
</g>
<!-- CuraSlicer -->
<g id="node6" class="node">
<title>CuraSlicer</title>
<ellipse fill="none" stroke="black" cx="361.66" cy="-90" rx="50.33" ry="18"/>
<text xml:space="preserve" text-anchor="middle" x="361.66" y="-84.95" font-family="Times,serif" font-size="14.00">CuraSlicer</text>
</g>
<!-- CuraSlicer&#45;&gt;OrcaSlicer -->
<g id="edge6" class="edge">
<title>CuraSlicer&#45;&gt;OrcaSlicer</title>
<path fill="none" stroke="black" d="M336.42,-74.15C319.3,-64.09 296.45,-50.64 277.58,-39.54"/>
<polygon fill="black" stroke="black" points="279.56,-36.64 269.16,-34.59 276.01,-42.68 279.56,-36.64"/>
</g>
</g>
</svg>
